<svg xmlns="http://www.w3.org/2000/svg" version="1.1" xmlns:xlink="http://www.w3.org/1999/xlink" xmlns:svgjs="http://svgjs.dev/svgjs" width="2000" height="1247" viewBox="0 0 2000 1247"><g transform="matrix(1,0,0,1,-1.2121212121212466,0.504858299595071)"><svg viewBox="0 0 396 247" data-background-color="#001524" preserveAspectRatio="xMidYMid meet" height="1247" width="2000" xmlns="http://www.w3.org/2000/svg" xmlns:xlink="http://www.w3.org/1999/xlink"><g id="tight-bounds" transform="matrix(1,0,0,1,0.2400000000000091,-0.09999999999999432)"><svg viewBox="0 0 395.52 247.2" height="247.2" width="395.52"><g><svg></svg></g><g><svg viewBox="0 0 395.52 247.2" height="247.2" width="395.52"><g transform="matrix(1,0,0,1,109.03255233085922,47.215199999999996)"><svg viewBox="0 0 177.45489533828155 152.7696" height="152.7696" width="177.45489533828155"><g><svg viewBox="0 0 177.45489533828155 152.7696" height="152.7696" width="177.45489533828155"><g><svg viewBox="0 0 87.38545070993915 152.7696" height="152.7696" width="87.38545070993915"><g id="textblocktransform"><svg viewBox="0 0 87.38545070993915 152.7696" height="152.7696" width="87.38545070993915" id="textblock"><g><svg viewBox="0 0 87.38545070993915 152.7696" height="152.7696" width="87.38545070993915"><g transform="matrix(1,0,0,1,0,0)"><svg width="87.38545070993915" viewBox="2.2 -35.45 20.650000000000002 36.11" height="152.7696" data-palette-color="#ffffff"><path d="M19.24-33.96L20.61-34.13Q20.85-34.13 20.85-33.59L20.85-33.59 21.48-28.39Q21.58-27.91 21.58-27.77 21.58-27.64 21.2-27.64 20.83-27.64 20.73-27.73 20.63-27.83 20.53-28.06 20.43-28.3 20.3-28.59 20.17-28.88 20.02-29.17L20.02-29.17Q19.51-30.3 18.41-31.4L18.41-31.4Q15.72-33.98 12.35-33.98L12.35-33.98Q10.33-33.98 8.52-32.67 6.71-31.35 6.71-29.55 6.71-27.76 7.39-26.44 8.06-25.12 9.16-24 10.25-22.88 11.67-21.85 13.09-20.83 14.55-19.78L14.55-19.78Q18.43-17.07 20.07-15.14L20.07-15.14Q22.63-12.16 22.85-8.45L22.85-8.45Q22.85-4.3 19.67-1.82 16.48 0.66 12.26 0.66L12.26 0.66Q9.55 0.66 7.95 0.11 6.35-0.44 5.74-0.68 5.13-0.93 4.85-0.93 4.57-0.93 4.49-0.9L4.49-0.9 3.3-0.66Q2.98-0.66 2.91-1.17L2.91-1.17Q2.2-7.23 2.2-7.6 2.2-7.98 2.26-8.12 2.32-8.25 2.59-8.25L2.59-8.25Q3.27-8.25 3.83-6.3L3.83-6.3Q6.4-0.81 12.35-0.81L12.35-0.81Q15.09-0.81 17.03-2.47 18.97-4.13 18.97-6.79L18.97-6.79Q18.97-11.04 13.89-14.7L13.89-14.7Q12.45-15.72 9.74-17.55 7.03-19.38 5.42-21.22L5.42-21.22Q2.91-24.05 2.91-27.53 2.91-31.01 5.68-33.23 8.45-35.45 12.04-35.45L12.04-35.45Q13.89-35.45 16.13-34.81 18.36-34.18 19.24-33.96L19.24-33.96Z" opacity="1" transform="matrix(1,0,0,1,0,0)" fill="#ffffff" class="wordmark-text-0" data-fill-palette-color="primary" id="text-0"></path></svg></g></svg></g></svg></g></svg></g><g transform="matrix(1,0,0,1,123.45068679953914,49.3826957306288)"><svg viewBox="0 0 54.0042085387424 54.0042085387424" height="54.0042085387424" width="54.0042085387424"><g data-palette-color="#efad44"><rect width="14.761150333922922" height="54.0042085387424" fill="#efad44" stroke="transparent" data-fill-palette-color="accent" x="0" fill-opacity="1"></rect><rect width="14.761150333922922" height="54.0042085387424" fill="#efad44" stroke="transparent" data-fill-palette-color="accent" x="18.001402846247466" fill-opacity="0.75"></rect><rect width="14.761150333922922" height="54.0042085387424" fill="#efad44" stroke="transparent" data-fill-palette-color="accent" x="36.00280569249493" fill-opacity="0.5"></rect></g></svg></g></svg></g></svg></g><g><path d="M212.327 0c30.402 0 58.24 10.976 79.769 29.183l-11.147 0c-19.26-14.022-42.974-22.294-68.622-22.295-25.647 0-49.361 8.272-68.621 22.295l-11.147 0c21.528-18.206 49.366-29.183 79.768-29.183zM335.927 123.6c0 30.375-10.957 58.192-29.134 79.712l0-11.156c13.993-19.248 22.246-42.938 22.246-68.556 0-25.618-8.254-49.307-22.246-68.556l0-11.156c18.178 21.52 29.135 49.336 29.134 79.712zM212.327 247.2c-30.402 0-58.24-10.976-79.768-29.183l11.147 0c19.26 14.022 42.974 22.294 68.621 22.295 25.647 0 49.361-8.272 68.622-22.295l11.147 0c-21.528 18.206-49.366 29.183-79.769 29.183z" fill="#7ea8be" stroke="transparent" data-fill-palette-color="tertiary"></path></g></svg></g><defs></defs></svg><rect width="40" height="35" fill="none" stroke="none" visibility="hidden"></rect></g></svg></g></svg>